<svg width="32" height="32" viewBox="0 0 32 32" fill="none" xmlns="http://www.w3.org/2000/svg">
<g clip-path="url(#clip0_1620_8247)">
<circle cx="16" cy="16" r="16" fill="white" fill-opacity="0.05"/>
<path fill-rule="evenodd" clip-rule="evenodd" d="M9.84615 15C8.82646 15 8 15.6715 8 16.5C8 17.3285 8.82646 18 9.84615 18C10.8658 18 11.6923 17.3285 11.6923 16.5C11.6923 15.6715 10.8658 15 9.84615 15ZM16 15C14.9803 15 14.1538 15.6715 14.1538 16.5C14.1538 17.3285 14.9803 18 16 18C17.0197 18 17.8462 17.3285 17.8462 16.5C17.8462 15.6715 17.0197 15 16 15ZM22.1538 15C21.1342 15 20.3077 15.6715 20.3077 16.5C20.3077 17.3285 21.1342 18 22.1538 18C23.1735 18 24 17.3285 24 16.5C24 15.6715 23.1735 15 22.1538 15Z" fill="#F8F8F8"/>
</g>
<defs>
<clipPath id="clip0_1620_8247">
<rect width="32" height="32" fill="white"/>
</clipPath>
</defs>
</svg>
