<svg width="16" height="17" viewBox="0 0 16 17" fill="none" xmlns="http://www.w3.org/2000/svg">
<rect y="0.5" width="16" height="16" rx="8" fill="#191919"/>
<path fill-rule="evenodd" clip-rule="evenodd" d="M10.4742 16.1096C9.69497 16.363 8.86339 16.5 8.00001 16.5C7.13605 16.5 6.30393 16.3628 5.52427 16.1091C5.88443 16.1522 6.01751 15.9177 6.01751 15.7153C6.01751 15.6271 6.01601 15.4717 6.01399 15.2637C6.01166 15.0231 6.00866 14.7121 6.00651 14.3538C3.78101 14.8376 3.31151 13.2806 3.31151 13.2806C2.94801 12.356 2.42351 12.1098 2.42351 12.1098C1.69701 11.6129 2.47851 11.623 2.47851 11.623C3.28101 11.6796 3.70351 12.4481 3.70351 12.4481C4.41751 13.6715 5.57601 13.3182 6.03201 13.113C6.10451 12.5957 6.31151 12.2429 6.54001 12.0428C4.76351 11.8407 2.89601 11.1542 2.89601 8.08657C2.89601 7.21242 3.20751 6.498 3.71951 5.93808C3.63701 5.73549 3.36251 4.9219 3.79751 3.81963C3.79751 3.81963 4.46951 3.60445 5.99751 4.6402C6.63601 4.46253 7.32001 4.37407 8.00051 4.37045C8.68001 4.37394 9.36451 4.46253 10.0035 4.6402C11.5305 3.60445 12.201 3.81963 12.201 3.81963C12.6375 4.9219 12.363 5.73549 12.2805 5.93808C12.7935 6.498 13.103 7.21242 13.103 8.08657C13.103 11.1616 11.2325 11.8387 9.45051 12.0368C9.73751 12.284 9.99351 12.7723 9.99351 13.5193C9.99351 14.235 9.98904 14.858 9.98608 15.2708C9.98461 15.4754 9.98351 15.6283 9.98351 15.7154C9.98351 15.9188 10.1134 16.1538 10.4742 16.1096Z" fill="white"/>
<path d="M13.0068 11.6844L13.6652 12.7783L14.9089 13.0664L14.072 14.0305L14.1824 15.3025L13.0068 14.8044L11.8313 15.3025L11.9417 14.0305L11.1047 13.0664L12.3485 12.7783L13.0068 11.6844Z" fill="#FFD64D"/>
</svg>
