<svg width="34" height="29" viewBox="0 0 34 29" fill="none" xmlns="http://www.w3.org/2000/svg">
<path d="M30.4235 0.0146534C31.2845 1.44333 32.2404 2.59359 32.7219 3.91969C33.3348 5.63409 33.6413 7.48038 33.9405 9.29736C34.1521 10.5942 33.8675 10.8652 31.9704 11.7591C32.3279 12.9606 32.7365 14.1988 33.0722 15.4516C34.0718 19.2248 32.3498 22.4851 28.5921 23.5181C27.1984 23.8991 26.5344 24.4999 26.3812 25.8919C26.3447 26.2363 25.8704 26.5293 25.6004 26.8444C24.3892 25.3937 22.8715 26.5513 21.5144 26.3462C21.3173 26.3169 21.1495 26.1264 20.6752 25.826C21.3976 25.5256 21.8646 25.3571 22.317 25.1373C22.7037 24.9541 23.0685 24.727 23.4407 24.5145C23.1999 24.0823 23.0612 23.4669 22.6891 23.2397C21.6019 22.573 19.5224 23.1958 19.0043 24.2215C18.3257 25.5769 18.8219 26.859 20.3177 27.6576C20.7847 27.9067 21.2152 28.2144 21.6603 28.5002C21.6384 28.6614 21.6165 28.8225 21.5946 28.9837C20.989 28.9837 20.3834 29.0204 19.7851 28.9837C18.5446 28.9031 17.3042 28.8079 16.0638 28.654C15.7281 28.6101 15.3122 28.4416 15.1152 28.1925C13.3422 25.9799 11.445 26.6905 9.45307 27.8188C8.86205 28.1485 8.13239 28.2291 6.94304 28.5808C8.43155 26.1264 6.70955 25.3131 5.27212 23.9504C4.8854 24.749 4.54246 25.467 4.14845 26.2876C4.09737 26.2656 3.78362 26.2436 3.70335 26.0971C2.30241 23.4815 0.288542 21.181 0.616889 17.7888C0.821193 15.6568 0.208278 13.4515 0.0112694 11.2755C-0.0325102 10.8066 0.0550521 10.2938 0.208281 9.84685C1.16414 7.0994 2.15647 4.37393 3.12692 1.67045C3.40419 1.69243 3.56472 1.65579 3.63039 1.72173C5.03863 3.16506 6.12582 5.09193 8.7526 4.24938C10.5913 3.66326 12.6855 4.52779 14.4731 3.06249C15.7281 2.03677 17.3699 2.17598 18.7562 3.08447C22.0616 5.25312 26.8992 4.52046 29.3217 1.42134C29.6501 0.996406 29.9857 0.571469 30.4235 0V0.0146534ZM19.0919 8.90905C17.6253 7.4584 15.3779 7.54632 14.225 9.02628C15.8303 10.2425 17.3845 10.1839 19.0919 8.90905Z" fill="#191919"/>
</svg>
