<svg width="32" height="32" viewBox="0 0 32 32" fill="none" xmlns="http://www.w3.org/2000/svg">
<path fill-rule="evenodd" clip-rule="evenodd" d="M10.8747 9.33334C9.29676 9.33334 8 10.6301 8 12.2081V17.9575C8 19.5355 9.29676 20.8323 10.8747 20.8323C12.4527 20.8323 13.7495 19.5355 13.7495 17.9575V12.2081C13.7495 10.6301 12.4527 9.33334 10.8747 9.33334ZM10.8747 10.976C11.5653 10.976 12.1068 11.5175 12.1068 12.2081V17.9575C12.1068 18.6481 11.5653 19.1896 10.8747 19.1896C10.1841 19.1896 9.6427 18.6481 9.6427 17.9575V12.2081C9.6427 11.5175 10.1841 10.976 10.8747 10.976ZM21.1252 9.33334C19.5472 9.33334 18.2504 10.6301 18.2504 12.2081V17.9575C18.2504 19.5355 19.5472 20.8323 21.1252 20.8323C22.7031 20.8323 23.9999 19.5355 23.9999 17.9575V12.2081C23.9999 10.6301 22.7031 9.33334 21.1252 9.33334ZM21.1252 10.976C21.8158 10.976 22.3572 11.5175 22.3572 12.2081V17.9575C22.3572 18.6481 21.8158 19.1896 21.1252 19.1896C20.4346 19.1896 19.8931 18.6481 19.8931 17.9575V12.2081C19.8931 11.5175 20.4346 10.976 21.1252 10.976ZM14.6231 20.0766L14.308 21.9164H15.3245L16.1478 20.0766H14.6231Z" fill="#191919"/>
</svg>
