<svg width="32" height="32" viewBox="0 0 32 32" fill="none" xmlns="http://www.w3.org/2000/svg">
<g clip-path="url(#clip0_1620_8238)">
<circle cx="16" cy="16" r="16" fill="white" fill-opacity="0.05"/>
<path fill-rule="evenodd" clip-rule="evenodd" d="M10.8748 9.33335C9.29682 9.33335 8.00006 10.6301 8.00006 12.2081V17.9575C8.00006 19.5355 9.29682 20.8323 10.8748 20.8323C12.4528 20.8323 13.7495 19.5355 13.7495 17.9575V12.2081C13.7495 10.6301 12.4528 9.33335 10.8748 9.33335ZM10.8748 10.9761C11.5654 10.9761 12.1068 11.5175 12.1068 12.2081V17.9575C12.1068 18.6481 11.5654 19.1896 10.8748 19.1896C10.1842 19.1896 9.64276 18.6481 9.64276 17.9575V12.2081C9.64276 11.5175 10.1842 10.9761 10.8748 10.9761ZM21.1252 9.33335C19.5473 9.33335 18.2505 10.6301 18.2505 12.2081V17.9575C18.2505 19.5355 19.5473 20.8323 21.1252 20.8323C22.7032 20.8323 24 19.5355 24 17.9575V12.2081C24 10.6301 22.7032 9.33335 21.1252 9.33335ZM21.1252 10.9761C21.8158 10.9761 22.3573 11.5175 22.3573 12.2081V17.9575C22.3573 18.6481 21.8158 19.1896 21.1252 19.1896C20.4346 19.1896 19.8932 18.6481 19.8932 17.9575V12.2081C19.8932 11.5175 20.4346 10.9761 21.1252 10.9761ZM14.6231 20.0766L14.308 21.9164H15.3245L16.1479 20.0766H14.6231Z" fill="#F8F8F8"/>
</g>
<defs>
<clipPath id="clip0_1620_8238">
<rect width="32" height="32" fill="white"/>
</clipPath>
</defs>
</svg>
