<svg width="292" height="15" viewBox="0 0 292 15" fill="none" xmlns="http://www.w3.org/2000/svg">
<path d="M2.184 2.558C3.17333 1.578 4.35867 1.088 5.74 1.088C7.12133 1.088 8.302 1.578 9.282 2.558C10.2713 3.538 10.766 4.72333 10.766 6.114C10.766 7.50467 10.2713 8.69 9.282 9.67C8.302 10.65 7.12133 11.14 5.74 11.14C4.35867 11.14 3.17333 10.65 2.184 9.67C1.204 8.69 0.714 7.50467 0.714 6.114C0.714 4.72333 1.204 3.538 2.184 2.558ZM1.442 6.114C1.442 7.29 1.862 8.30267 2.702 9.152C3.542 9.992 4.55 10.412 5.726 10.412C6.91133 10.412 7.924 9.992 8.764 9.152C9.61333 8.312 10.038 7.29933 10.038 6.114C10.038 4.92867 9.61333 3.916 8.764 3.076C7.924 2.236 6.91133 1.816 5.726 1.816C4.55 1.816 3.542 2.236 2.702 3.076C1.862 3.916 1.442 4.92867 1.442 6.114ZM5.824 8.116C6.59867 8.116 7.13067 7.75667 7.42 7.038H8.358C8.19933 7.63533 7.896 8.10667 7.448 8.452C7 8.79733 6.45867 8.97 5.824 8.97C5.02133 8.97 4.368 8.70867 3.864 8.186C3.36933 7.66333 3.122 6.97267 3.122 6.114C3.122 5.25533 3.36933 4.56467 3.864 4.042C4.368 3.51933 4.97933 3.258 5.698 3.258C6.426 3.258 7.00933 3.43067 7.448 3.776C7.896 4.112 8.19933 4.58333 8.358 5.19H7.42C7.13067 4.47133 6.59867 4.112 5.824 4.112C5.264 4.112 4.83 4.30333 4.522 4.686C4.214 5.06867 4.06 5.54467 4.06 6.114C4.06 6.68333 4.214 7.15933 4.522 7.542C4.83 7.92467 5.264 8.116 5.824 8.116ZM19.0554 1.228H20.3294V7.78C20.3294 9.00267 20.0541 9.87067 19.5034 10.384C18.9621 10.888 18.3041 11.14 17.5294 11.14C16.7641 11.14 16.0688 10.9487 15.4434 10.566V9.306H15.4994C16.0688 9.726 16.6474 9.936 17.2354 9.936C17.8234 9.936 18.2714 9.79133 18.5794 9.502C18.8968 9.21267 19.0554 8.66667 19.0554 7.864V1.228ZM23.7009 3.86C23.7009 4.23333 23.8456 4.54133 24.1349 4.784C24.4336 5.02667 24.8022 5.19933 25.2409 5.302C25.6796 5.39533 26.1556 5.51667 26.6689 5.666C27.1916 5.806 27.6722 5.96 28.1109 6.128C28.5496 6.296 28.9136 6.576 29.2029 6.968C29.5016 7.35067 29.6509 7.83133 29.6509 8.41C29.6509 9.21267 29.3196 9.87067 28.6569 10.384C28.0036 10.888 27.0889 11.14 25.9129 11.14C24.7369 11.14 23.6169 10.888 22.5529 10.384V9.138H22.6229C23.5936 9.67933 24.6996 9.95 25.9409 9.95C27.5742 9.95 28.3909 9.40867 28.3909 8.326C28.3909 7.794 27.9942 7.402 27.2009 7.15C26.8556 7.038 26.4729 6.93067 26.0529 6.828C25.6329 6.72533 25.2082 6.604 24.7789 6.464C24.3589 6.324 23.9716 6.16067 23.6169 5.974C23.2716 5.778 22.9869 5.512 22.7629 5.176C22.5482 4.83067 22.4409 4.42467 22.4409 3.958C22.4409 3.146 22.7582 2.46467 23.3929 1.914C24.0369 1.36333 24.9002 1.088 25.9829 1.088C27.0749 1.088 28.0596 1.256 28.9369 1.592V2.782H28.8389C27.9616 2.42733 27.1169 2.25 26.3049 2.25C25.5022 2.25 24.8676 2.39467 24.4009 2.684C23.9342 2.964 23.7009 3.356 23.7009 3.86ZM31.9359 4.728C32.6172 4.056 33.4105 3.72 34.3159 3.72C35.2212 3.72 36.0052 4.06533 36.6679 4.756H36.7099V0.78H37.9839V11H36.8639L36.7099 10.104H36.6679C36.0052 10.7947 35.2212 11.14 34.3159 11.14C33.4105 11.14 32.6172 10.804 31.9359 10.132C31.2639 9.46 30.9279 8.55933 30.9279 7.43C30.9279 6.30067 31.2639 5.4 31.9359 4.728ZM34.4979 9.95C35.3379 9.95 36.0752 9.6 36.7099 8.9V5.96C36.0752 5.26 35.3379 4.91 34.4979 4.91C33.8072 4.91 33.2519 5.12933 32.8319 5.568C32.4119 6.00667 32.2019 6.62733 32.2019 7.43C32.2019 8.23267 32.4119 8.85333 32.8319 9.292C33.2519 9.73067 33.8072 9.95 34.4979 9.95ZM40.3199 4.252C41.1319 3.89733 41.9999 3.72 42.9239 3.72C43.8572 3.72 44.5712 3.99067 45.0659 4.532C45.5606 5.07333 45.8079 5.722 45.8079 6.478V11H44.6879L44.5339 10.104H44.4919C43.8199 10.7947 42.9566 11.14 41.9019 11.14C41.2672 11.14 40.7259 10.9487 40.2779 10.566C39.8392 10.1833 39.6199 9.66067 39.6199 8.998C39.6199 8.33533 39.8906 7.79867 40.4319 7.388C40.9826 6.97733 41.7852 6.772 42.8399 6.772H44.5339V6.66C44.5339 6.044 44.3799 5.60067 44.0719 5.33C43.7732 5.05933 43.2506 4.924 42.5039 4.924C41.7572 4.924 41.0572 5.08267 40.4039 5.4H40.3199V4.252ZM44.5339 8.97V7.794H43.0079C41.5986 7.794 40.8939 8.16733 40.8939 8.914C40.8939 9.65133 41.3886 10.02 42.3779 10.02C42.7886 10.02 43.1852 9.922 43.5679 9.726C43.9506 9.52067 44.2726 9.26867 44.5339 8.97ZM48.5335 4.728C49.2148 4.056 50.0082 3.72 50.9135 3.72C51.8188 3.72 52.6028 4.06533 53.2655 4.756H53.3075V0.78H54.5815V11H53.4615L53.3075 10.104H53.2655C52.6028 10.7947 51.8188 11.14 50.9135 11.14C50.0082 11.14 49.2148 10.804 48.5335 10.132C47.8615 9.46 47.5255 8.55933 47.5255 7.43C47.5255 6.30067 47.8615 5.4 48.5335 4.728ZM51.0955 9.95C51.9355 9.95 52.6728 9.6 53.3075 8.9V5.96C52.6728 5.26 51.9355 4.91 51.0955 4.91C50.4048 4.91 49.8495 5.12933 49.4295 5.568C49.0095 6.00667 48.7995 6.62733 48.7995 7.43C48.7995 8.23267 49.0095 8.85333 49.4295 9.292C49.8495 9.73067 50.4048 9.95 51.0955 9.95ZM57.3655 4.728C58.0469 4.056 58.8402 3.72 59.7455 3.72C60.6509 3.72 61.4349 4.06533 62.0975 4.756H62.1395V0.78H63.4135V11H62.2935L62.1395 10.104H62.0975C61.4349 10.7947 60.6509 11.14 59.7455 11.14C58.8402 11.14 58.0469 10.804 57.3655 10.132C56.6935 9.46 56.3575 8.55933 56.3575 7.43C56.3575 6.30067 56.6935 5.4 57.3655 4.728ZM59.9275 9.95C60.7675 9.95 61.5049 9.6 62.1395 8.9V5.96C61.5049 5.26 60.7675 4.91 59.9275 4.91C59.2369 4.91 58.6815 5.12933 58.2615 5.568C57.8415 6.00667 57.6315 6.62733 57.6315 7.43C57.6315 8.23267 57.8415 8.85333 58.2615 9.292C58.6815 9.73067 59.2369 9.95 59.9275 9.95ZM71.9236 3.86L67.6256 14.22H66.3376L67.5416 11.112L64.5876 3.86H65.9596L68.1996 9.502H68.2556L70.5516 3.86H71.9236ZM73.0184 9.432H74.5864V11C74.5864 12.0827 74.0638 12.8433 73.0184 13.282V12.372C73.5318 12.092 73.7884 11.6347 73.7884 11H73.0184V9.432ZM86.9979 3.93C86.9979 4.38733 86.8765 4.83067 86.6339 5.26C86.4005 5.68 86.0972 6.04867 85.7239 6.366C85.3599 6.674 84.9539 6.99133 84.5059 7.318C84.0579 7.63533 83.6332 7.91533 83.2319 8.158C82.2612 8.746 81.6685 9.278 81.4539 9.754V9.81H86.8579V11H80.1659V10.272C80.1659 9.81467 80.3012 9.376 80.5719 8.956C80.8519 8.52667 81.1972 8.158 81.6079 7.85C82.0279 7.542 82.4805 7.22467 82.9659 6.898C83.4512 6.57133 83.8992 6.27267 84.3099 6.002C84.7299 5.73133 85.0752 5.42333 85.3459 5.078C85.6259 4.73267 85.7659 4.38267 85.7659 4.028C85.7659 2.87067 85.0285 2.292 83.5539 2.292C82.4245 2.292 81.4352 2.572 80.5859 3.132H80.5159V1.886C81.5145 1.354 82.6019 1.088 83.7779 1.088C84.6925 1.088 85.4579 1.354 86.0739 1.886C86.6899 2.40867 86.9979 3.09 86.9979 3.93ZM88.6489 6.114C88.6489 4.574 88.9709 3.35133 89.6149 2.446C90.2682 1.54067 91.2062 1.088 92.4289 1.088C93.6609 1.088 94.6035 1.54067 95.2569 2.446C95.9102 3.35133 96.2369 4.574 96.2369 6.114C96.2369 7.654 95.9102 8.87667 95.2569 9.782C94.6035 10.6873 93.6609 11.14 92.4289 11.14C91.2062 11.14 90.2682 10.6873 89.6149 9.782C88.9709 8.87667 88.6489 7.654 88.6489 6.114ZM90.5669 8.942C91.0055 9.62333 91.6309 9.964 92.4429 9.964C93.2549 9.964 93.8755 9.62333 94.3049 8.942C94.7435 8.26067 94.9629 7.32267 94.9629 6.128C94.9629 4.924 94.7435 3.98133 94.3049 3.3C93.8755 2.61867 93.2549 2.278 92.4429 2.278C91.6309 2.278 91.0055 2.61867 90.5669 3.3C90.1375 3.98133 89.9229 4.924 89.9229 6.128C89.9229 7.32267 90.1375 8.26067 90.5669 8.942ZM102.256 9.81H104.174V11H98.7979V9.81H100.982V2.726H100.926L98.8959 3.734V2.376L101.08 1.228H102.256V9.81ZM110.543 4.672C111.504 4.672 112.279 4.97067 112.867 5.568C113.455 6.16533 113.749 6.94 113.749 7.892C113.749 8.844 113.432 9.62333 112.797 10.23C112.172 10.8367 111.336 11.14 110.291 11.14C107.734 11.14 106.455 9.46933 106.455 6.128C106.455 4.90533 106.744 3.79467 107.323 2.796C107.622 2.28267 108.046 1.872 108.597 1.564C109.148 1.24667 109.838 1.088 110.669 1.088C111.509 1.088 112.335 1.31667 113.147 1.774V3.062H113.077C112.312 2.56733 111.49 2.32 110.613 2.32C110.044 2.32 109.558 2.44133 109.157 2.684C108.756 2.92667 108.457 3.24867 108.261 3.65C107.906 4.378 107.71 5.12467 107.673 5.89H107.701C108.336 5.078 109.283 4.672 110.543 4.672ZM110.305 9.95C110.949 9.95 111.472 9.754 111.873 9.362C112.274 8.97 112.475 8.47533 112.475 7.878C112.475 7.28067 112.298 6.79067 111.943 6.408C111.588 6.02533 111.07 5.834 110.389 5.834C109.176 5.834 108.294 6.34733 107.743 7.374C107.995 9.09133 108.849 9.95 110.305 9.95ZM119.096 7.64H115.456V6.506H119.096V7.64ZM127.877 3.93C127.877 4.38733 127.755 4.83067 127.513 5.26C127.279 5.68 126.976 6.04867 126.603 6.366C126.239 6.674 125.833 6.99133 125.385 7.318C124.937 7.63533 124.512 7.91533 124.111 8.158C123.14 8.746 122.547 9.278 122.333 9.754V9.81H127.737V11H121.045V10.272C121.045 9.81467 121.18 9.376 121.451 8.956C121.731 8.52667 122.076 8.158 122.487 7.85C122.907 7.542 123.359 7.22467 123.845 6.898C124.33 6.57133 124.778 6.27267 125.189 6.002C125.609 5.73133 125.954 5.42333 126.225 5.078C126.505 4.73267 126.645 4.38267 126.645 4.028C126.645 2.87067 125.907 2.292 124.433 2.292C123.303 2.292 122.314 2.572 121.465 3.132H121.395V1.886C122.393 1.354 123.481 1.088 124.657 1.088C125.571 1.088 126.337 1.354 126.953 1.886C127.569 2.40867 127.877 3.09 127.877 3.93ZM129.528 6.114C129.528 4.574 129.85 3.35133 130.494 2.446C131.147 1.54067 132.085 1.088 133.308 1.088C134.54 1.088 135.482 1.54067 136.136 2.446C136.789 3.35133 137.116 4.574 137.116 6.114C137.116 7.654 136.789 8.87667 136.136 9.782C135.482 10.6873 134.54 11.14 133.308 11.14C132.085 11.14 131.147 10.6873 130.494 9.782C129.85 8.87667 129.528 7.654 129.528 6.114ZM131.446 8.942C131.884 9.62333 132.51 9.964 133.322 9.964C134.134 9.964 134.754 9.62333 135.184 8.942C135.622 8.26067 135.842 7.32267 135.842 6.128C135.842 4.924 135.622 3.98133 135.184 3.3C134.754 2.61867 134.134 2.278 133.322 2.278C132.51 2.278 131.884 2.61867 131.446 3.3C131.016 3.98133 130.802 4.924 130.802 6.128C130.802 7.32267 131.016 8.26067 131.446 8.942ZM145.459 3.93C145.459 4.38733 145.337 4.83067 145.095 5.26C144.861 5.68 144.558 6.04867 144.185 6.366C143.821 6.674 143.415 6.99133 142.967 7.318C142.519 7.63533 142.094 7.91533 141.693 8.158C140.722 8.746 140.129 9.278 139.915 9.754V9.81H145.319V11H138.627V10.272C138.627 9.81467 138.762 9.376 139.033 8.956C139.313 8.52667 139.658 8.158 140.069 7.85C140.489 7.542 140.941 7.22467 141.427 6.898C141.912 6.57133 142.36 6.27267 142.771 6.002C143.191 5.73133 143.536 5.42333 143.807 5.078C144.087 4.73267 144.227 4.38267 144.227 4.028C144.227 2.87067 143.489 2.292 142.015 2.292C140.885 2.292 139.896 2.572 139.047 3.132H138.977V1.886C139.975 1.354 141.063 1.088 142.239 1.088C143.153 1.088 143.919 1.354 144.535 1.886C145.151 2.40867 145.459 3.09 145.459 3.93ZM152.234 5.946C153.578 6.282 154.25 7.11267 154.25 8.438C154.25 9.29667 153.909 9.964 153.228 10.44C152.556 10.9067 151.669 11.14 150.568 11.14C149.476 11.14 148.463 10.93 147.53 10.51V9.264H147.6C148.421 9.70267 149.35 9.922 150.386 9.922C151.59 9.922 152.378 9.656 152.752 9.124C152.901 8.90933 152.976 8.65733 152.976 8.368C152.976 7.192 151.944 6.604 149.882 6.604H149.154V5.428H149.714C150.647 5.428 151.366 5.288 151.87 5.008C152.374 4.71867 152.626 4.294 152.626 3.734C152.626 3.286 152.439 2.93133 152.066 2.67C151.692 2.40867 151.142 2.278 150.414 2.278C149.368 2.278 148.458 2.53467 147.684 3.048H147.628V1.872C148.561 1.34933 149.546 1.088 150.582 1.088C151.618 1.088 152.43 1.30733 153.018 1.746C153.606 2.18467 153.9 2.80533 153.9 3.608C153.9 4.74667 153.344 5.52133 152.234 5.932V5.946ZM156.335 9.432H157.903V11C157.903 12.0827 157.38 12.8433 156.335 13.282V12.372C156.848 12.092 157.105 11.6347 157.105 11H156.335V9.432ZM170.874 11L169.824 8.494H165.078L164.028 11H162.642L166.786 1.228H168.116L172.26 11H170.874ZM165.582 7.262V7.332H169.32V7.262L167.472 2.796H167.444L165.582 7.262ZM174.826 0.78V11H173.552V0.78H174.826ZM178.531 0.78V11H177.257V0.78H178.531ZM192.285 9.796V10.132C192.285 10.4307 192.364 10.7013 192.523 10.944V11H191.207C191.076 10.7853 191.011 10.5333 191.011 10.244V10.02C191.011 9.16133 190.922 8.57333 190.745 8.256C190.661 8.088 190.549 7.91067 190.409 7.724C190.12 7.36933 189.62 7.192 188.911 7.192H186.013V11H184.739V1.228H188.631C189.9 1.228 190.852 1.48933 191.487 2.012C192.122 2.53467 192.439 3.22067 192.439 4.07C192.439 4.63933 192.285 5.15267 191.977 5.61C191.669 6.058 191.221 6.38467 190.633 6.59V6.618C191.734 6.90733 192.285 7.96667 192.285 9.796ZM188.547 5.988C189.35 5.988 189.984 5.82933 190.451 5.512C190.927 5.19467 191.165 4.75133 191.165 4.182C191.165 3.61267 190.96 3.17867 190.549 2.88C190.148 2.58133 189.457 2.432 188.477 2.432H186.013V5.988H188.547ZM194.51 11V3.86H195.784V11H194.51ZM195.84 0.976V2.348H194.468V0.976H195.84ZM203.551 3.86H204.671V10.692C204.671 11.868 204.387 12.7733 203.817 13.408C203.248 14.0427 202.422 14.36 201.339 14.36C200.266 14.36 199.286 14.122 198.399 13.646V12.386H198.469C199.263 12.8993 200.191 13.156 201.255 13.156C202.683 13.156 203.397 12.3953 203.397 10.874V9.964H203.355C202.711 10.6547 201.941 11 201.045 11C200.149 11 199.351 10.6827 198.651 10.048C197.961 9.404 197.615 8.508 197.615 7.36C197.615 6.212 197.961 5.32067 198.651 4.686C199.351 4.042 200.149 3.72 201.045 3.72C201.941 3.72 202.711 4.06533 203.355 4.756H203.397L203.551 3.86ZM203.397 8.802V5.918C202.725 5.22733 202.025 4.882 201.297 4.882C200.579 4.882 199.995 5.09667 199.547 5.526C199.109 5.946 198.889 6.55733 198.889 7.36C198.889 8.16267 199.109 8.77867 199.547 9.208C199.995 9.628 200.579 9.838 201.297 9.838C202.025 9.838 202.725 9.49267 203.397 8.802ZM210.759 3.72C211.534 3.72 212.145 3.98133 212.593 4.504C213.041 5.02667 213.265 5.68 213.265 6.464V11H211.991V6.604C211.991 5.46533 211.478 4.896 210.451 4.896C209.639 4.896 208.874 5.344 208.155 6.24V11H206.881V0.78H208.155V4.966H208.197C208.953 4.13533 209.807 3.72 210.759 3.72ZM219.179 4.952H217.149V9.18C217.149 9.572 217.256 9.81467 217.471 9.908C217.648 9.98267 217.877 10.02 218.157 10.02C218.437 10.02 218.745 9.94533 219.081 9.796H219.179V10.832C218.787 11.0373 218.367 11.14 217.919 11.14C216.556 11.14 215.875 10.524 215.875 9.292V4.952H214.545V4.868L217.149 2.32V3.86H219.179V4.952ZM223.376 4.882C222.778 4.882 222.335 4.97533 222.046 5.162C221.766 5.33933 221.626 5.568 221.626 5.848C221.626 6.11867 221.77 6.32867 222.06 6.478C222.349 6.62733 222.699 6.74867 223.11 6.842C223.53 6.926 223.945 7.03333 224.356 7.164C224.766 7.29467 225.116 7.51867 225.406 7.836C225.695 8.15333 225.84 8.58733 225.84 9.138C225.84 9.68867 225.602 10.16 225.126 10.552C224.659 10.944 223.959 11.14 223.026 11.14C222.102 11.14 221.257 10.93 220.492 10.51V9.292H220.562C221.318 9.74 222.148 9.964 223.054 9.964C224.09 9.964 224.608 9.63267 224.608 8.97C224.608 8.75533 224.463 8.58267 224.174 8.452C223.884 8.312 223.534 8.19533 223.124 8.102C222.713 8.00867 222.302 7.89667 221.892 7.766C221.481 7.63533 221.131 7.416 220.842 7.108C220.552 6.8 220.408 6.408 220.408 5.932C220.408 5.27867 220.641 4.74667 221.108 4.336C221.584 3.92533 222.228 3.72 223.04 3.72C223.852 3.72 224.608 3.85067 225.308 4.112V5.274H225.21C224.584 5.01267 223.973 4.882 223.376 4.882ZM238.947 9.796V10.132C238.947 10.4307 239.026 10.7013 239.185 10.944V11H237.869C237.738 10.7853 237.673 10.5333 237.673 10.244V10.02C237.673 9.16133 237.584 8.57333 237.407 8.256C237.323 8.088 237.211 7.91067 237.071 7.724C236.782 7.36933 236.282 7.192 235.573 7.192H232.675V11H231.401V1.228H235.293C236.562 1.228 237.514 1.48933 238.149 2.012C238.784 2.53467 239.101 3.22067 239.101 4.07C239.101 4.63933 238.947 5.15267 238.639 5.61C238.331 6.058 237.883 6.38467 237.295 6.59V6.618C238.396 6.90733 238.947 7.96667 238.947 9.796ZM235.209 5.988C236.012 5.988 236.646 5.82933 237.113 5.512C237.589 5.19467 237.827 4.75133 237.827 4.182C237.827 3.61267 237.622 3.17867 237.211 2.88C236.81 2.58133 236.119 2.432 235.139 2.432H232.675V5.988H235.209ZM247.388 7.43V7.878H241.984C242.058 8.53133 242.301 9.04 242.712 9.404C243.122 9.768 243.743 9.95 244.574 9.95C245.414 9.95 246.188 9.71667 246.898 9.25H246.968V10.482C246.184 10.9207 245.26 11.14 244.196 11.14C243.141 11.14 242.292 10.818 241.648 10.174C241.013 9.52067 240.696 8.64333 240.696 7.542C240.696 6.43133 240.98 5.51667 241.55 4.798C242.119 4.07933 242.95 3.72 244.042 3.72C245.134 3.72 245.964 4.07933 246.534 4.798C247.103 5.51667 247.388 6.394 247.388 7.43ZM241.984 6.842H246.114C246.076 6.17 245.848 5.66133 245.428 5.316C245.017 4.97067 244.555 4.798 244.042 4.798C243.528 4.798 243.066 4.97067 242.656 5.316C242.245 5.66133 242.021 6.17 241.984 6.842ZM251.69 4.882C251.093 4.882 250.649 4.97533 250.36 5.162C250.08 5.33933 249.94 5.568 249.94 5.848C249.94 6.11867 250.085 6.32867 250.374 6.478C250.663 6.62733 251.013 6.74867 251.424 6.842C251.844 6.926 252.259 7.03333 252.67 7.164C253.081 7.29467 253.431 7.51867 253.72 7.836C254.009 8.15333 254.154 8.58733 254.154 9.138C254.154 9.68867 253.916 10.16 253.44 10.552C252.973 10.944 252.273 11.14 251.34 11.14C250.416 11.14 249.571 10.93 248.806 10.51V9.292H248.876C249.632 9.74 250.463 9.964 251.368 9.964C252.404 9.964 252.922 9.63267 252.922 8.97C252.922 8.75533 252.777 8.58267 252.488 8.452C252.199 8.312 251.849 8.19533 251.438 8.102C251.027 8.00867 250.617 7.89667 250.206 7.766C249.795 7.63533 249.445 7.416 249.156 7.108C248.867 6.8 248.722 6.408 248.722 5.932C248.722 5.27867 248.955 4.74667 249.422 4.336C249.898 3.92533 250.542 3.72 251.354 3.72C252.166 3.72 252.922 3.85067 253.622 4.112V5.274H253.524C252.899 5.01267 252.287 4.882 251.69 4.882ZM262.099 7.43V7.878H256.695C256.769 8.53133 257.012 9.04 257.423 9.404C257.833 9.768 258.454 9.95 259.285 9.95C260.125 9.95 260.899 9.71667 261.609 9.25H261.679V10.482C260.895 10.9207 259.971 11.14 258.907 11.14C257.852 11.14 257.003 10.818 256.359 10.174C255.724 9.52067 255.407 8.64333 255.407 7.542C255.407 6.43133 255.691 5.51667 256.261 4.798C256.83 4.07933 257.661 3.72 258.753 3.72C259.845 3.72 260.675 4.07933 261.245 4.798C261.814 5.51667 262.099 6.394 262.099 7.43ZM256.695 6.842H260.825C260.787 6.17 260.559 5.66133 260.139 5.316C259.728 4.97067 259.266 4.798 258.753 4.798C258.239 4.798 257.777 4.97067 257.367 5.316C256.956 5.66133 256.732 6.17 256.695 6.842ZM267.745 3.72H267.857V4.938H267.745C267.194 4.938 266.681 5.04533 266.205 5.26C265.729 5.47467 265.356 5.77333 265.085 6.156V11H263.811V3.86H264.931L265.085 4.756V4.966H265.113C265.785 4.13533 266.662 3.72 267.745 3.72ZM274.069 3.86H275.455L272.459 11H271.199L268.203 3.86H269.589L271.801 9.488H271.857L274.069 3.86ZM282.921 7.43V7.878H277.517C277.592 8.53133 277.834 9.04 278.245 9.404C278.656 9.768 279.276 9.95 280.107 9.95C280.947 9.95 281.722 9.71667 282.431 9.25H282.501V10.482C281.717 10.9207 280.793 11.14 279.729 11.14C278.674 11.14 277.825 10.818 277.181 10.174C276.546 9.52067 276.229 8.64333 276.229 7.542C276.229 6.43133 276.514 5.51667 277.083 4.798C277.652 4.07933 278.483 3.72 279.575 3.72C280.667 3.72 281.498 4.07933 282.067 4.798C282.636 5.51667 282.921 6.394 282.921 7.43ZM277.517 6.842H281.647C281.61 6.17 281.381 5.66133 280.961 5.316C280.55 4.97067 280.088 4.798 279.575 4.798C279.062 4.798 278.6 4.97067 278.189 5.316C277.778 5.66133 277.554 6.17 277.517 6.842ZM285.207 4.728C285.889 4.056 286.682 3.72 287.587 3.72C288.493 3.72 289.277 4.06533 289.939 4.756H289.981V0.78H291.255V11H290.135L289.981 10.104H289.939C289.277 10.7947 288.493 11.14 287.587 11.14C286.682 11.14 285.889 10.804 285.207 10.132C284.535 9.46 284.199 8.55933 284.199 7.43C284.199 6.30067 284.535 5.4 285.207 4.728ZM287.769 9.95C288.609 9.95 289.347 9.6 289.981 8.9V5.96C289.347 5.26 288.609 4.91 287.769 4.91C287.079 4.91 286.523 5.12933 286.103 5.568C285.683 6.00667 285.473 6.62733 285.473 7.43C285.473 8.23267 285.683 8.85333 286.103 9.292C286.523 9.73067 287.079 9.95 287.769 9.95Z" fill="#191919" fill-opacity="0.45"/>
</svg>
