<svg width="32" height="32" viewBox="0 0 32 32" fill="none" xmlns="http://www.w3.org/2000/svg">
<g clip-path="url(#clip0_1620_8274)">
<circle cx="16" cy="16" r="16" fill="white" fill-opacity="0.05"/>
<path d="M11.8063 20C9.45085 20 8 18.4742 8 15.9976C8 13.5209 9.44476 12 11.8063 12C13.7862 12 15.2857 13.2731 15.3456 14.9928H13.4206C13.3171 14.1672 12.6683 13.609 11.8063 13.609C10.7098 13.609 10.0397 14.5139 10.0397 15.9917C10.0397 17.4753 10.7108 18.39 11.8124 18.39C12.6744 18.39 13.3171 17.8533 13.4318 17.0386H15.3517C15.2847 18.7739 13.8237 20 11.8063 20ZM20.4546 20C18.0991 20 16.6483 18.4742 16.6483 15.9976C16.6483 13.5209 18.093 12 20.4546 12C22.4344 12 23.934 13.2731 23.9939 14.9928H22.0689C21.9654 14.1672 21.3166 13.609 20.4546 13.609C19.3581 13.609 18.688 14.5139 18.688 15.9917C18.688 17.4753 19.3591 18.39 20.4607 18.39C21.3227 18.39 21.9654 17.8533 22.0801 17.0386H24C23.934 18.7739 22.472 20 20.4546 20Z" fill="#FFD64D"/>
</g>
<defs>
<clipPath id="clip0_1620_8274">
<rect width="32" height="32" fill="white"/>
</clipPath>
</defs>
</svg>
