<svg width="32" height="32" viewBox="0 0 32 32" fill="none" xmlns="http://www.w3.org/2000/svg">
<g clip-path="url(#clip0_1620_8256)">
<circle cx="16" cy="16" r="16" fill="white" fill-opacity="0.05"/>
<path d="M14.4023 8C13.3625 8 12.4833 8.671 12.1524 9.6H8.81024C8.70438 9.5985 8.59928 9.61809 8.50105 9.65762C8.40281 9.69715 8.3134 9.75584 8.23801 9.83027C8.16262 9.90471 8.10276 9.99341 8.0619 10.0912C8.02104 10.189 8 10.294 8 10.4C8 10.506 8.02104 10.611 8.0619 10.7088C8.10276 10.8066 8.16262 10.8953 8.23801 10.9697C8.3134 11.0442 8.40281 11.1029 8.50105 11.1424C8.59928 11.1819 8.70438 11.2015 8.81024 11.2H12.1524C12.4833 12.129 13.3625 12.8 14.4023 12.8C15.7236 12.8 16.7989 11.7232 16.7989 10.4C16.7989 9.0768 15.7236 8 14.4023 8ZM19.1954 9.6C19.0896 9.5985 18.9845 9.61809 18.8863 9.65762C18.788 9.69715 18.6986 9.75584 18.6232 9.83027C18.5478 9.90471 18.488 9.99341 18.4471 10.0912C18.4063 10.189 18.3852 10.294 18.3852 10.4C18.3852 10.506 18.4063 10.611 18.4471 10.7088C18.488 10.8066 18.5478 10.8953 18.6232 10.9697C18.6986 11.0442 18.788 11.1029 18.8863 11.1424C18.9845 11.1819 19.0896 11.2015 19.1954 11.2H23.1898C23.2956 11.2015 23.4007 11.1819 23.499 11.1424C23.5972 11.1029 23.6866 11.0442 23.762 10.9697C23.8374 10.8953 23.8972 10.8066 23.9381 10.7088C23.979 10.611 24 10.506 24 10.4C24 10.294 23.979 10.189 23.9381 10.0912C23.8972 9.99341 23.8374 9.90471 23.762 9.83027C23.6866 9.75584 23.5972 9.69715 23.499 9.65762C23.4007 9.61809 23.2956 9.5985 23.1898 9.6H19.1954ZM18.3966 13.6C17.3568 13.6 16.4776 14.271 16.1467 15.2H8.81024C8.70438 15.1985 8.59928 15.2181 8.50105 15.2576C8.40281 15.2971 8.3134 15.3558 8.23801 15.4303C8.16262 15.5047 8.10276 15.5934 8.0619 15.6912C8.02104 15.789 8 15.894 8 16C8 16.106 8.02104 16.211 8.0619 16.3088C8.10276 16.4066 8.16262 16.4953 8.23801 16.5697C8.3134 16.6442 8.40281 16.7029 8.50105 16.7424C8.59928 16.7819 8.70438 16.8015 8.81024 16.8H16.1467C16.4776 17.729 17.3568 18.4 18.3966 18.4C19.7179 18.4 20.7932 17.3232 20.7932 16C20.7932 14.6768 19.7179 13.6 18.3966 13.6ZM23.1898 15.2C23.0839 15.1985 22.9788 15.2181 22.8806 15.2576C22.7823 15.2971 22.6929 15.3558 22.6175 15.4303C22.5421 15.5047 22.4823 15.5934 22.4414 15.6912C22.4006 15.789 22.3795 15.894 22.3795 16C22.3795 16.106 22.4006 16.211 22.4414 16.3088C22.4823 16.4066 22.5421 16.4953 22.6175 16.5697C22.6929 16.6442 22.7823 16.7029 22.8806 16.7424C22.9788 16.7819 23.0839 16.8015 23.1898 16.8C23.2956 16.8015 23.4007 16.7819 23.499 16.7424C23.5972 16.7029 23.6866 16.6442 23.762 16.5697C23.8374 16.4953 23.8972 16.4066 23.9381 16.3088C23.979 16.211 24 16.106 24 16C24 15.894 23.979 15.789 23.9381 15.6912C23.8972 15.5934 23.8374 15.5047 23.762 15.4303C23.6866 15.3558 23.5972 15.2971 23.499 15.2576C23.4007 15.2181 23.2956 15.1985 23.1898 15.2ZM12.0057 19.2C10.9659 19.2 10.0867 19.871 9.75577 20.8H8.81024C8.70438 20.7985 8.59928 20.8181 8.50105 20.8576C8.40281 20.8971 8.3134 20.9558 8.23801 21.0303C8.16262 21.1047 8.10276 21.1934 8.0619 21.2912C8.02104 21.389 8 21.494 8 21.6C8 21.706 8.02104 21.811 8.0619 21.9088C8.10276 22.0066 8.16262 22.0953 8.23801 22.1697C8.3134 22.2442 8.40281 22.3029 8.50105 22.3424C8.59928 22.3819 8.70438 22.4015 8.81024 22.4H9.75577C10.0867 23.329 10.9659 24 12.0057 24C13.327 24 14.4023 22.9232 14.4023 21.6C14.4023 20.2768 13.327 19.2 12.0057 19.2ZM16.7989 20.8C16.693 20.7985 16.5879 20.8181 16.4897 20.8576C16.3914 20.8971 16.302 20.9558 16.2266 21.0303C16.1512 21.1047 16.0914 21.1934 16.0505 21.2912C16.0097 21.389 15.9886 21.494 15.9886 21.6C15.9886 21.706 16.0097 21.811 16.0505 21.9088C16.0914 22.0066 16.1512 22.0953 16.2266 22.1697C16.302 22.2442 16.3914 22.3029 16.4897 22.3424C16.5879 22.3819 16.693 22.4015 16.7989 22.4H23.1898C23.2956 22.4015 23.4007 22.3819 23.499 22.3424C23.5972 22.3029 23.6866 22.2442 23.762 22.1697C23.8374 22.0953 23.8972 22.0066 23.9381 21.9088C23.979 21.811 24 21.706 24 21.6C24 21.494 23.979 21.389 23.9381 21.2912C23.8972 21.1934 23.8374 21.1047 23.762 21.0303C23.6866 20.9558 23.5972 20.8971 23.499 20.8576C23.4007 20.8181 23.2956 20.7985 23.1898 20.8H16.7989Z" fill="#F8F8F8"/>
</g>
<defs>
<clipPath id="clip0_1620_8256">
<rect width="32" height="32" fill="white"/>
</clipPath>
</defs>
</svg>
