<svg width="24" height="24" viewBox="0 0 24 24" fill="none" xmlns="http://www.w3.org/2000/svg">
<path d="M8.75001 2.5C7.50951 2.5 6.50001 3.5095 6.50001 4.75V10.5283C6.63751 10.5183 6.7711 10.5 6.9131 10.5C7.8246 10.5 8.37905 10.6222 8.91505 10.7402C9.41905 10.8507 9.99014 10.9766 11.2236 10.9961L13.75 11C14.3815 11 14.9996 11.1879 15.5371 11.5439L15.6445 11.627C15.821 11.782 15.9732 11.9584 16.0977 12.1504L16.3975 11.9668C16.919 11.6478 17.7307 11.2038 18.9502 10.5703L19.4004 10.3359C19.4354 10.3174 19.466 10.3007 19.5 10.2832V4.75C19.5 3.5095 18.4905 2.5 17.25 2.5H8.75001ZM11.75 5H14.25C14.6645 5 15 5.3355 15 5.75C15 6.1645 14.6645 6.5 14.25 6.5H11.75C11.3355 6.5 11 6.1645 11 5.75C11 5.3355 11.3355 5 11.75 5ZM21.6836 10.5C21.1706 10.5 20.6076 10.838 19.4111 11.459C18.4191 11.974 17.5024 12.4633 16.9199 12.8203C16.9709 13.0393 17 13.266 17 13.5C17 15.1545 15.6545 16.5 14 16.5H10.25C9.83601 16.5 9.50001 16.1645 9.50001 15.75C9.50001 15.3355 9.83601 15 10.25 15H14C14.827 15 15.5 14.327 15.5 13.5C15.5 13.0515 15.2984 12.6529 14.9854 12.3779C14.6299 12.1429 14.2075 12 13.75 12H11.5537H11.25C11.2355 12 11.2215 11.9961 11.207 11.9951C9.88904 11.9741 9.25671 11.8388 8.7002 11.7168C8.19471 11.6053 7.7161 11.5 6.9131 11.5C3.2471 11.5 1.15489 16.0009 1.06739 16.1924C0.954393 16.4404 0.984994 16.7292 1.14649 16.9482L4.64649 21.6953C4.78899 21.8888 5.01306 21.9971 5.24806 21.9971C5.29556 21.9971 5.34313 21.9924 5.39063 21.9834C5.67363 21.9299 5.9016 21.715 5.9756 21.4365C6.0151 21.2895 6.39751 20 7.75001 20C8.72601 20 9.73592 20.1256 10.7119 20.2471C11.7064 20.3716 12.7355 20.5 13.75 20.5C15.132 20.5 16.126 19.4405 19 16.5C22.6505 12.7645 23 12.4383 23 11.6973C23 11.0568 22.4371 10.5 21.6836 10.5Z" fill="#191919" fill-opacity="0.25"/>
</svg>
