<svg width="16" height="16" viewBox="0 0 16 16" fill="none" xmlns="http://www.w3.org/2000/svg">
    <rect width="16" height="16" rx="8" fill="#191919"/>
    <path fill-rule="evenodd" clip-rule="evenodd" d="M10.4741 15.6095C9.69494 15.8629 8.86336 15.9999 7.99998 15.9999C7.13602 15.9999 6.3039 15.8628 5.52424 15.609C5.8844 15.6522 6.01748 15.4177 6.01748 15.2152C6.01748 15.1271 6.01597 14.9716 6.01396 14.7637C6.01163 14.523 6.00862 14.2121 6.00648 13.8538C3.78098 14.3376 3.31148 12.7805 3.31148 12.7805C2.94798 11.8559 2.42348 11.6097 2.42348 11.6097C1.69698 11.1129 2.47848 11.123 2.47848 11.123C3.28098 11.1795 3.70348 11.948 3.70348 11.948C4.41748 13.1714 5.57598 12.8182 6.03198 12.613C6.10448 12.0957 6.31148 11.7428 6.53998 11.5427C4.76348 11.3406 2.89598 10.6541 2.89598 7.5865C2.89598 6.71236 3.20748 5.99794 3.71948 5.43802C3.63698 5.23543 3.36248 4.42184 3.79748 3.31956C3.79748 3.31956 4.46948 3.10439 5.99748 4.14014C6.63598 3.96247 7.31998 3.874 8.00048 3.87039C8.67998 3.87388 9.36448 3.96247 10.0035 4.14014C11.5305 3.10439 12.201 3.31956 12.201 3.31956C12.6375 4.42184 12.363 5.23543 12.2805 5.43802C12.7935 5.99794 13.103 6.71236 13.103 7.5865C13.103 10.6616 11.2325 11.3386 9.45048 11.5367C9.73748 11.7839 9.99348 12.2722 9.99348 13.0193C9.99348 13.7349 9.98901 14.3579 9.98605 14.7708C9.98458 14.9753 9.98348 15.1283 9.98348 15.2153C9.98348 15.4187 10.1133 15.6537 10.4741 15.6095Z" fill="white"/>
</svg>
