<svg width="104" height="47" viewBox="0 0 104 47" fill="none" xmlns="http://www.w3.org/2000/svg">
<g clip-path="url(#clip0_2835_15878)">
<path fill-rule="evenodd" clip-rule="evenodd" d="M28.9188 0V5.6437H35.6297V0H28.9188ZM29.0881 10.2059V40.5574C29.0881 41.1661 28.9752 41.5655 28.7494 41.7557C28.5237 41.984 28.091 42.0981 27.4513 42.0981H26.2096V47H29.3111C33.4098 47 35.4577 45.1197 35.4577 41.3563V10.2059H29.0854H29.0881ZM6.14658 25.3926L22.3878 20.6021V15.1296L0 22.2569V28.4141L22.3878 35.7126V30.2401L6.14658 25.3953V25.3926ZM52.0215 0.0570619H58.4503V38.1989H52.1344V35.4056C51.6829 37.2669 50.3498 38.1989 48.1298 38.1989H46.3829C42.5477 38.1989 40.6314 36.3186 40.6314 32.5552V15.7926C40.6314 12.0292 42.5477 10.1489 46.3829 10.1489H48.1298C50.159 10.1489 51.4571 10.9477 52.0215 12.5428V0.0570619ZM48.5814 33.1829H50.2746C51.441 33.1829 52.0215 32.5552 52.0215 31.3025V17.105C52.0215 16.3822 51.8898 15.8877 51.6264 15.6214C51.363 15.317 50.9115 15.1649 50.2719 15.1649H48.5787C47.9766 15.1649 47.5627 15.279 47.337 15.5073C47.1112 15.6975 46.9983 16.0969 46.9983 16.7056V31.6422C46.9983 32.2509 47.1112 32.6693 47.337 32.8976C47.5627 33.0878 47.9766 33.1829 48.5787 33.1829H48.5814ZM97.8561 25.1969L82.0852 20.6021L83.9262 15.3198L104 22.0612V28.2185L76.8282 35.7099L78.7337 30.2075L97.8534 25.1969H97.8561ZM82.6335 0H76.9599L60.6299 47H66.3035L82.6335 0Z" fill="black"/>
<path d="M22.3878 20.6021L6.14658 25.3926V25.3953L22.3878 30.2401V35.7126L0 28.4141V22.2569L22.3878 15.1296V20.6021Z" fill="url(#paint0_linear_2835_15878)"/>
<path d="M82.0852 20.6021L97.8561 25.1969H97.8534L78.7337 30.2075L76.8282 35.7099L104 28.2185V22.0612L83.9262 15.3198L82.0852 20.6021Z" fill="url(#paint1_linear_2835_15878)"/>
<path d="M76.9599 0H82.6335L66.3035 47H60.6299L76.9599 0Z" fill="url(#paint2_linear_2835_15878)"/>
</g>
<defs>
<linearGradient id="paint0_linear_2835_15878" x1="83.9975" y1="11.2085" x2="28.8445" y2="12.6744" gradientUnits="userSpaceOnUse">
<stop stop-color="#FF710A"/>
<stop offset="1" stop-color="#FFC400"/>
</linearGradient>
<linearGradient id="paint1_linear_2835_15878" x1="83.9975" y1="11.2085" x2="28.8445" y2="12.6744" gradientUnits="userSpaceOnUse">
<stop stop-color="#FF710A"/>
<stop offset="1" stop-color="#FFC400"/>
</linearGradient>
<linearGradient id="paint2_linear_2835_15878" x1="83.9975" y1="11.2085" x2="28.8445" y2="12.6744" gradientUnits="userSpaceOnUse">
<stop stop-color="#FF710A"/>
<stop offset="1" stop-color="#FFC400"/>
</linearGradient>
<clipPath id="clip0_2835_15878">
<rect width="104" height="47" fill="white"/>
</clipPath>
</defs>
</svg>
