<svg width="104" height="48" viewBox="0 0 104 48" fill="none" xmlns="http://www.w3.org/2000/svg">
<g clip-path="url(#clip0_2835_15881)">
<path fill-rule="evenodd" clip-rule="evenodd" d="M28.9188 0.5V6.1437H35.6297V0.5H28.9188ZM29.0881 10.7059V41.0574C29.0881 41.6661 28.9752 42.0655 28.7494 42.2557C28.5237 42.484 28.091 42.5981 27.4513 42.5981H26.2096V47.5H29.3111C33.4098 47.5 35.4577 45.6197 35.4577 41.8563V10.7059H29.0854H29.0881ZM6.14658 25.8926L22.3878 21.1021V15.6296L0 22.7569V28.9141L22.3878 36.2126V30.7401L6.14658 25.8953V25.8926ZM52.0215 0.557062H58.4503V38.6989H52.1344V35.9056C51.6829 37.7669 50.3498 38.6989 48.1298 38.6989H46.3829C42.5477 38.6989 40.6314 36.8186 40.6314 33.0552V16.2926C40.6314 12.5292 42.5477 10.6489 46.3829 10.6489H48.1298C50.159 10.6489 51.4571 11.4477 52.0215 13.0428V0.557062ZM48.5814 33.6829H50.2746C51.441 33.6829 52.0215 33.0552 52.0215 31.8025V17.605C52.0215 16.8822 51.8898 16.3877 51.6264 16.1214C51.363 15.817 50.9115 15.6649 50.2719 15.6649H48.5787C47.9766 15.6649 47.5627 15.779 47.337 16.0073C47.1112 16.1975 46.9983 16.5969 46.9983 17.2056V32.1422C46.9983 32.7509 47.1112 33.1693 47.337 33.3976C47.5627 33.5878 47.9766 33.6829 48.5787 33.6829H48.5814ZM97.8561 25.6969L82.0852 21.1021L83.9262 15.8198L104 22.5612V28.7185L76.8282 36.2099L78.7337 30.7075L97.8534 25.6969H97.8561ZM82.6334 0.5H76.9599L60.6299 47.5H66.3035L82.6334 0.5Z" fill="white"/>
<path d="M22.3878 21.6021L6.14658 26.3926V26.3953L22.3878 31.2401V36.7126L0 29.4141V23.2569L22.3878 16.1296V21.6021Z" fill="url(#paint0_linear_2835_15881)"/>
<path d="M82.0852 21.6021L97.8561 26.1969H97.8534L78.7337 31.2075L76.8282 36.7099L104 29.2185V23.0612L83.9262 16.3198L82.0852 21.6021Z" fill="url(#paint1_linear_2835_15881)"/>
<path d="M76.9599 1H82.6335L66.3035 48H60.6299L76.9599 1Z" fill="url(#paint2_linear_2835_15881)"/>
</g>
<defs>
<linearGradient id="paint0_linear_2835_15881" x1="83.9975" y1="12.2085" x2="28.8445" y2="13.6744" gradientUnits="userSpaceOnUse">
<stop stop-color="#FF710A"/>
<stop offset="1" stop-color="#FFC400"/>
</linearGradient>
<linearGradient id="paint1_linear_2835_15881" x1="83.9975" y1="12.2085" x2="28.8445" y2="13.6744" gradientUnits="userSpaceOnUse">
<stop stop-color="#FF710A"/>
<stop offset="1" stop-color="#FFC400"/>
</linearGradient>
<linearGradient id="paint2_linear_2835_15881" x1="83.9975" y1="12.2085" x2="28.8445" y2="13.6744" gradientUnits="userSpaceOnUse">
<stop stop-color="#FF710A"/>
<stop offset="1" stop-color="#FFC400"/>
</linearGradient>
<clipPath id="clip0_2835_15881">
<rect width="104" height="47" fill="white" transform="translate(0 0.5)"/>
</clipPath>
</defs>
</svg>
